<svg xmlns="http://www.w3.org/2000/svg" viewBox="0 0 100 100" width="100" height="100">
  <!-- Background circle -->
  <circle cx="50" cy="50" r="48" fill="#dc2626" stroke="#fde047" stroke-width="2"/>
  
  <!-- Book icon -->
  <rect x="25" y="30" width="22" height="30" fill="#fde047" rx="2"/>
  <rect x="27" y="32" width="18" height="26" fill="#dc2626"/>
  
  <!-- Pages -->
  <line x1="30" y1="38" x2="42" y2="38" stroke="#fde047" stroke-width="1"/>
  <line x1="30" y1="42" x2="42" y2="42" stroke="#fde047" stroke-width="1"/>
  <line x1="30" y1="46" x2="42" y2="46" stroke="#fde047" stroke-width="1"/>
  <line x1="30" y1="50" x2="42" y2="50" stroke="#fde047" stroke-width="1"/>
  
  <!-- Graduation cap -->
  <polygon points="50,25 65,30 75,27 75,35 50,40 25,35 25,27" fill="#fde047"/>
  <rect x="48" y="25" width="4" height="8" fill="#fde047"/>
  <circle cx="50" cy="23" r="2" fill="#fde047"/>
  
  <!-- Academic symbol -->
  <circle cx="65" cy="45" r="12" fill="none" stroke="#fde047" stroke-width="2"/>
  <text x="65" y="50" text-anchor="middle" fill="#fde047" font-family="Arial, sans-serif" font-size="10" font-weight="bold">A</text>
  
  <!-- Care heart -->
  <path d="M35 70 C35 65, 40 65, 42 68 C44 65, 49 65, 49 70 C49 75, 42 80, 42 80 C42 80, 35 75, 35 70 Z" fill="#fde047"/>
</svg>
